Coordinates
version=1
nRows=12
nColumns=46
inDegrees=yes

Units are S.I. units (second, meters, Newtons, ...)
Angles are in degrees.

endheader
time	pelvis_tilt	pelvis_list	pelvis_rotation	pelvis_tx	pelvis_ty	pelvis_tz	bb_angle	bb_tx	bb_ty	bb_tz	hip_flexion_r	hip_adduction_r	hip_rotation_r	knee_angle_r	knee_angle_r_beta	ankle_angle_r	subtalar_angle_r	mtp_angle_r	crank_angle_r	hip_flexion_l	hip_adduction_l	hip_rotation_l	knee_angle_l	knee_angle_l_beta	ankle_angle_l	subtalar_angle_l	mtp_angle_l	crank_angle_l	lumbar_extension	lumbar_bending	lumbar_rotation	arm_flex_r	arm_add_r	arm_rot_r	elbow_flex_r	pro_sup_r	wrist_flex_r	wrist_dev_r	arm_flex_l	arm_add_l	arm_rot_l	elbow_flex_l	pro_sup_l	wrist_flex_l	wrist_dev_l
      2.50500000	    -25.40497165	     -3.48302763	     -8.22776543	      0.09715806	      1.02129322	     -0.21327410	      0.00000000	      0.50000000	      0.00000000	      0.25000000	     99.56501492	     -4.88447570	     -0.60720664	    114.68185691	      2.00157600	      7.28412935	      0.28991627	      0.00000000	      0.00000000	     44.78610354	    -13.02060472	     -8.36366004	     21.64338739	      0.37774837	    -26.76011876	     -0.27148501	      0.00000000	      0.00000000	    -49.54112504	      5.65647337	      6.44911785	     89.56025335	     -4.85330785	     34.67835389	     49.78870904	     34.08292146	      0.00000000	      0.00000000	     86.62922918	    -23.03602148	     38.36738843	     54.27657567	     39.33795356	      0.00000000	      0.00000000
      2.51000000	    -25.25797255	     -3.48730593	     -8.49378567	      0.09798635	      1.02283432	     -0.21261162	      0.00000000	      0.50000000	      0.00000000	      0.25000000	     99.60755052	     -4.15079742	     -0.59974309	    114.23357538	      1.99375201	      8.09240003	     -0.15633543	      0.00000000	      0.00000000	     44.40781350	    -13.28395612	     -8.77729572	     22.17558856	      0.38703703	    -27.74086335	     -0.98889830	      0.00000000	      0.00000000	    -49.75035138	      5.56902756	      6.72998758	     89.55231785	     -4.60228735	     34.62813183	     49.62364226	     34.04976923	      0.00000000	      0.00000000	     86.69189456	    -23.11067019	     38.74399545	     53.82727718	     39.39169784	      0.00000000	      0.00000000
      2.51500000	    -25.18793395	     -3.45589489	     -8.63331091	      0.09854662	      1.02419634	     -0.21218376	      0.00000000	      0.50000000	      0.00000000	      0.25000000	     99.69274148	     -3.58068555	     -0.56930022	    113.68629889	      1.98420023	      8.84524266	     -0.55616831	      0.00000000	      0.00000000	     44.23094511	    -13.39585010	     -8.83172100	     22.84088367	      0.39864862	    -28.42245728	     -1.41958634	      0.00000000	      0.00000000	    -49.87831587	      5.54085176	      6.87981642	     89.55001268	     -4.45419380	     34.61844559	     49.52204113	     34.03085694	      0.00000000	      0.00000000	     86.72350582	    -23.11058430	     38.91736435	     53.55899713	     39.40244964	      0.00000000	      0.00000000
      2.52000000	    -25.15996257	     -3.40743578	     -8.84839900	      0.09888301	      1.02546628	     -0.21151715	      0.00000000	      0.50000000	      0.00000000	      0.25000000	     99.76046237	     -2.91299540	     -0.55668637	    113.02702872	      1.97269379	      9.45856598	     -0.95053488	      0.00000000	      0.00000000	     44.19270863	    -13.54427152	     -8.76972376	     23.66885789	      0.41309950	    -29.13847451	     -2.23272063	      0.00000000	      0.00000000	    -49.90528502	      5.43238140	      7.12984818	     89.54829722	     -4.26317977	     34.53395624	     49.20303831	     33.96938646	      0.00000000	      0.00000000	     86.80116519	    -22.98851553	     39.29380351	     52.92156284	     39.40894112	      0.00000000	      0.00000000
      2.52500000	    -25.07581597	     -3.16710257	     -8.85602248	      0.09918332	      1.02695120	     -0.21132177	      0.00000000	      0.50000000	      0.00000000	      0.25000000	     99.76170189	     -2.55480020	     -0.33874447	    112.24382614	      1.95902433	      9.78257135	     -1.12414627	      0.00000000	      0.00000000	     44.01893673	    -13.29772358	     -8.45443933	     24.24166802	      0.42309692	    -29.48763475	     -2.24184740	      0.00000000	      0.00000000	    -50.03839192	      5.32624556	      7.11400782	     89.55009200	     -4.23437647	     34.51810816	     49.19282126	     33.96642834	      0.00000000	      0.00000000	     86.73532562	    -22.95293732	     39.34221805	     52.84800805	     39.40696943	      0.00000000	      0.00000000
      2.53000000	    -25.21032104	     -3.30620202	     -9.17041390	      0.09885740	      1.02764339	     -0.21021274	      0.00000000	      0.50000000	      0.00000000	      0.25000000	     99.79565251	     -1.55881399	     -0.56339105	    111.42336692	      1.94470462	     10.86566777	     -2.31128663	      0.00000000	      0.00000000	     44.64221771	    -13.78519377	     -8.35921034	     25.86590865	      0.45144527	    -30.50904487	     -3.81043026	      0.00000000	      0.00000000	    -49.83355470	      5.24465923	      7.68397389	     89.54323444	     -3.87864219	     33.93435161	     48.25827033	     33.77565370	      0.00000000	      0.00000000	     87.29296632	    -22.12715176	     40.28216541	     50.51262507	     39.39406150	      0.00000000	      0.00000000
      2.53500000	    -25.22847778	     -3.25728861	     -9.38616580	      0.09871343	      1.02873191	     -0.20944667	      0.00000000	      0.50000000	      0.00000000	      0.25000000	     99.66666569	     -0.86670175	     -0.59480812	    110.46967579	      1.92805957	     11.72845491	     -2.83980670	      0.00000000	      0.00000000	     44.98251174	    -13.95502446	     -8.10895142	     27.15136344	      0.47388069	    -31.22919801	     -4.62760935	      0.00000000	      0.00000000	    -49.84366245	      5.11455604	      7.84114292	     89.54611115	     -3.59483505	     33.82387709	     47.95604090	     33.86591559	      0.00000000	      0.00000000	     87.25248328	    -21.92855658	     39.91495783	     50.06612067	     39.50566677	      0.00000000	      0.00000000
      2.54000000	    -25.24915244	     -3.21222505	     -9.62944275	      0.09848844	      1.02972010	     -0.20857773	      0.00000000	      0.50000000	      0.00000000	      0.25000000	     99.47392678	     -0.17965101	     -0.69191819	    109.41992173	      1.90973790	     12.47087774	     -3.58329196	      0.00000000	      0.00000000	     45.44189645	    -14.19802700	     -7.91171234	     28.64125430	      0.49988419	    -31.89938825	     -5.28810792	      0.00000000	      0.00000000	    -49.85108689	      4.92410159	      8.26341373	     89.53299724	     -3.59487466	     33.35117229	     47.99542523	     34.15951937	      0.00000000	      0.00000000	     87.52998073	    -21.36343071	     40.25476174	     48.95626091	     39.77345331	      0.00000000	      0.00000000
      2.54500000	    -25.29839770	     -3.14688003	     -9.89505401	      0.09827924	      1.03062912	     -0.20783451	      0.00000000	      0.50000000	      0.00000000	      0.25000000	     99.22597018	      0.46694136	     -0.77103478	    108.27281788	      1.88971716	     13.29919397	     -4.12137580	      0.00000000	      0.00000000	     45.98924903	    -14.42929451	     -7.68020483	     30.24758801	      0.52792000	    -32.38623811	     -5.91289501	      0.00000000	      0.00000000	    -49.80360355	      4.74277834	      8.43647681	     89.52942541	     -3.30510181	     33.14846189	     47.61787429	     34.39403279	      0.00000000	      0.00000000	     87.50915351	    -20.98006500	     39.75598574	     48.19703946	     39.90366234	      0.00000000	      0.00000000
      2.55000000	    -25.24677479	     -3.03107242	    -10.07264125	      0.09804796	      1.03169226	     -0.20722911	      0.00000000	      0.50000000	      0.00000000	      0.25000000	     98.79097888	      0.95654192	     -0.81573472	    107.03616788	      1.86813355	     14.18187772	     -4.69681203	      0.00000000	      0.00000000	     46.42203256	    -14.49016617	     -7.34534243	     31.71817836	      0.55358665	    -33.32113831	     -6.85684982	      0.00000000	      0.00000000	    -49.92888696	      4.55401485	      8.47507677	     89.52823755	     -3.09425855	     32.73731208	     47.78459613	     34.53765168	      0.00000000	      0.00000000	     87.33398365	    -20.80204188	     38.66040613	     48.44602679	     39.96623811	      0.00000000	      0.00000000
      2.55500000	    -25.40073073	     -3.02347786	    -10.36219093	      0.09748571	      1.03215677	     -0.20635765	      0.00000000	      0.50000000	      0.00000000	      0.25000000	     98.51173895	      1.56641320	     -1.03967933	    105.65620784	      1.84404870	     14.80035346	     -5.52907997	      0.00000000	      0.00000000	     47.28121983	    -14.84854789	     -6.98083656	     33.60818539	      0.58657349	    -33.65538272	     -7.09259628	      0.00000000	      0.00000000	    -49.74917543	      4.39519757	      8.88416223	     89.51492658	     -2.91603617	     32.32469147	     47.55428139	     34.53235045	      0.00000000	      0.00000000	     87.59511199	    -20.26306779	     39.11853683	     47.11757560	     39.94875869	      0.00000000	      0.00000000
      2.56000000	    -25.41371102	     -2.85623090	    -10.54333500	      0.09706737	      1.03283587	     -0.20580551	      0.00000000	      0.50000000	      0.00000000	      0.25000000	     98.02110743	      1.95155022	     -1.05540388	    104.22422347	      1.81905586	     15.65068548	     -5.93468733	      0.00000000	      0.00000000	     47.93126451	    -14.89718866	     -6.57970106	     35.32862192	      0.61660077	    -34.28270550	     -7.67426824	      0.00000000	      0.00000000	    -49.75141838	      4.18242777	      8.86622617	     89.50617351	     -2.59184085	     31.97765620	     47.56756585	     34.70424370	      0.00000000	      0.00000000	     87.57795411	    -20.08205331	     38.57073027	     46.78718088	     40.08713313	      0.00000000	      0.00000000
